<?xml version="1.0" encoding="utf-8"?>
<!-- Generator: Adobe Illustrator 25.0.1, SVG Export Plug-In . SVG Version: 6.00 Build 0)  -->
<svg version="1.2" baseProfile="tiny" xmlns="http://www.w3.org/2000/svg" xmlns:xlink="http://www.w3.org/1999/xlink" x="0px"
	 y="0px" viewBox="0 0 750 500" overflow="visible" xml:space="preserve">
<g id="BACKGROUND">
	<linearGradient id="SVGID_1_" gradientUnits="userSpaceOnUse" x1="172.9968" y1="-99.8798" x2="577.0032" y2="599.8798">
		<stop  offset="0" style="stop-color:#5C25BD"/>
		<stop  offset="0.2892" style="stop-color:#3C1599"/>
		<stop  offset="0.5663" style="stop-color:#240A7E"/>
		<stop  offset="0.8118" style="stop-color:#16026E"/>
		<stop  offset="1" style="stop-color:#110068"/>
	</linearGradient>
	<rect fill="url(#SVGID_1_)" width="750" height="500"/>
</g>
<g id="OBJECTS">
	<g>
		<g id="XMLID_1_">
			<g>
				<linearGradient id="SVGID_2_" gradientUnits="userSpaceOnUse" x1="17.6315" y1="11.9618" x2="37.0385" y2="45.5758">
					<stop  offset="0" style="stop-color:#FB5507"/>
					<stop  offset="1" style="stop-color:#5C25BD"/>
				</linearGradient>
				<path fill="url(#SVGID_2_)" d="M38.35,0h21.76c-0.9,1.76-1.85,3.49-2.86,5.19c-2.67,4.49-5.87,8.88-10.37,11.54
					c-5.11,3.02-11.39,3.53-16.53,6.48C23.9,26.91,20.13,33.9,17.3,40.77s-5.14,14.15-9.91,19.85c-2.1,2.51-4.61,4.62-7.39,6.34
					V46.79c4.7-4.51,8.55-9.66,10.4-15.88c1.16-3.91,1.49-8.16,3.58-11.67c3.09-5.2,9.21-7.58,14.37-10.74
					C32.09,6.2,35.47,3.31,38.35,0z"/>
				<linearGradient id="SVGID_3_" gradientUnits="userSpaceOnUse" x1="51.7166" y1="26.9469" x2="98.8451" y2="108.5757">
					<stop  offset="0" style="stop-color:#FE9C0A"/>
					<stop  offset="1" style="stop-color:#FB5507"/>
				</linearGradient>
				<path fill="url(#SVGID_3_)" d="M155.97,0c5.81,18.19,2.35,39.52-7.34,56.41c-3.87,6.75-8.8,13.15-15.51,17.09
					c-7.67,4.51-16.86,5.39-25.4,7.88c-14.23,4.15-27.01,13.11-35.77,25.07c-6.29,8.59-10.58,18.68-18.03,26.28
					c-4.99,5.1-11.3,8.89-18.14,10.92c-11.51,3.42-23.69,1.79-35.78,1.24V102.6c12.77-4.48,23.68-14.16,29.55-26.38
					c3.18-6.63,5.05-14.1,10.01-19.52c7.8-8.51,20.63-9.46,31.22-14.05C82.5,37.57,91.9,27.37,96.01,15.27
					C97.68,10.36,98.46,5.18,98.39,0h18.24H155.97z"/>
				<linearGradient id="SVGID_4_" gradientUnits="userSpaceOnUse" x1="580.3905" y1="324.0134" x2="698.9973" y2="529.4464">
					<stop  offset="0" style="stop-color:#FE9C0A"/>
					<stop  offset="1" style="stop-color:#FB5507"/>
				</linearGradient>
				<path fill="url(#SVGID_4_)" d="M750,466.48V500h-35.57c0.76-2.37,0.96-4.9,0.97-7.4c0.04-13.34-5.56-26.6-15.15-35.87
					c-10.77-10.4-26.55-16.4-32.83-30c-1.95-4.22-2.79-8.86-3.71-13.43c-1.18-5.91-2.53-11.78-4.04-17.61
					c-2.31-8.93-5.05-17.88-9.92-25.71c-4.87-7.83-12.13-14.53-21-17.03c-8.88-2.51-19.39-0.13-25.11,7.1
					c-7.34,9.27-5.01,23.01,0.41,33.52c3.21,6.24,7.36,12.01,11.02,17.99c2.51,4.1,4.78,8.31,6.37,12.84
					c2.39,6.8,3.13,14.16,2.14,21.29c-1.15,8.34-4.6,16.27-5.29,24.66c-0.84,10.18,2.34,21.03,8.35,29.65h-32
					c-4.35-9.1-6.22-19.39-5.1-29.42c1.14-10.28,3.69-19.2,2.6-29.8c-1.18-11.42-4.43-22.54-8.1-33.38
					c-6.65-19.63-14.71-39.48-13.94-60.19c0.9-24.14,22.12-35.26,43.75-24.94c9.1,4.34,16.55,11.51,23.12,19.17
					c10.49,12.23,19.1,25.94,26.61,40.16c7.32,13.87,12.14,30.3,22.32,42.39C702.49,443.7,730.08,450.22,750,466.48z"/>
				<linearGradient id="SVGID_5_" gradientUnits="userSpaceOnUse" x1="546.7936" y1="266.104" x2="675.2673" y2="488.6269">
					<stop  offset="0" style="stop-color:#FB5507"/>
					<stop  offset="1" style="stop-color:#5C25BD"/>
				</linearGradient>
				<path fill="url(#SVGID_5_)" d="M750,358.86v86.62c-1.41-0.8-2.89-1.53-4.43-2.19c-24.19-10.31-48-23.3-64.2-44.6
					c-15.18-19.96-22.34-44.52-34.87-66.03c-14.84-25.49-39.13-39-68.75-38.12c-17.22,0.52-30.85,8.48-34.68,26.22
					c-4.74,21.92,5.19,45.08,13.24,65c11.17,27.61,21.22,53.98,21.97,82.52c0.28,10.96-2.26,21.69-3.69,31.72h-42.41
					c5.01-31.72,6.09-64.22-0.22-95.45c-4-19.82-14.34-36.83-22.86-54.89c-9.72-20.57-12.37-42.71,4.53-60.4
					c3.03-3.17,6.3-6.12,9.52-9.11c15.22-10.72,33.9-16.23,52.56-17.18c20.67-1.05,41.34,3.24,60.86,10.1
					c17.6,6.19,34.81,14.74,47.77,28.16c8.29,8.6,14.58,18.92,22.42,27.93C718.36,342.51,733.43,352.71,750,358.86z"/>
				<linearGradient id="SVGID_6_" gradientUnits="userSpaceOnUse" x1="627.201" y1="193.5448" x2="720.954" y2="355.9297">
					<stop  offset="0" style="stop-color:#FB5507"/>
					<stop  offset="1" style="stop-color:#5C25BD"/>
				</linearGradient>
				<path fill="url(#SVGID_6_)" d="M750,293.95v45.21c-12.03-7.74-23.05-17.05-32.7-27.61c-9.68-10.6-18.03-22.5-28.99-31.77
					c-8.37-7.08-18.17-12.49-28.63-15.8c-12.59-3.98-25.94-4.92-38.8-7.94c-12.86-3.03-25.89-8.68-33.5-19.48
					c-3.38-4.79-5.47-10.28-7.04-15.96c13.31,28.11,42.72,28.91,71.48,30.24C687.92,252.51,725.75,266.67,750,293.95z"/>
				<linearGradient id="SVGID_7_" gradientUnits="userSpaceOnUse" x1="535.2394" y1="8.395" x2="712.5784" y2="315.5554">
					<stop  offset="0" style="stop-color:#3887FE"/>
					<stop  offset="0.1723" style="stop-color:#3A81FA"/>
					<stop  offset="0.3971" style="stop-color:#4071EF"/>
					<stop  offset="0.6508" style="stop-color:#4A56DD"/>
					<stop  offset="0.9239" style="stop-color:#5831C5"/>
					<stop  offset="1" style="stop-color:#5C25BD"/>
				</linearGradient>
				<path fill="url(#SVGID_7_)" d="M580.34,220.6c-0.76-1.6-1.46-3.29-2.11-5.07c-9.25-25.35-5.08-53.91-16.32-78.71
					c-8.15-17.97-19.73-34.87-24.78-53.78c-4.94-18.49-1.01-39.17,3.48-57.38c2.16-8.78,5.08-17.58,9.17-25.66h32.83
					c-1.09,5.11-2.34,10.21-3.73,15.25c-3.3,11.93-5.82,21.93-3.91,34.51c2.9,19.08,12.69,36.39,23.45,52.41
					c5.1,7.6,10.56,15.27,12.64,24.18c2.35,10.06,0.12,20.53-1.4,30.75c-2.58,17.29-2.73,36.3,7.26,50.64
					c7.28,10.46,19.1,17,31.33,20.57c12.22,3.58,25.03,4.51,37.69,5.93c21.58,2.43,43,6.34,64.06,11.69v48.02
					c-24.25-27.28-62.08-41.44-98.18-43.11C623.06,249.51,593.65,248.71,580.34,220.6z"/>
				<linearGradient id="SVGID_8_" gradientUnits="userSpaceOnUse" x1="600.3224" y1="4.0862" x2="729.1048" y2="227.1438">
					<stop  offset="0" style="stop-color:#FE9C0A"/>
					<stop  offset="1" style="stop-color:#FB5507"/>
				</linearGradient>
				<path fill="url(#SVGID_8_)" d="M750,144.9v70.18c-5.54,2.66-11.69,4.56-18.51,5.51c-14.15,1.99-28.47,0.64-42.47-1.84
					c-16.57-2.93-33.18-3.6-43.7-18.72c-15.58-22.39-13.07-51.22-12.3-77.06c0.57-19.03-1.17-38.94-7.94-56.88
					c-6.65-17.62-21.05-34.05-20.11-53.73c0.02-0.39,0.04-0.77,0.07-1.16c0.33-4.18,1.13-7.89,2.36-11.2h57.07
					c-6.8,6.76-11.73,15.69-13.51,25.02c-0.95,5-1.3,10.12-1.03,15.21c0.85,15.64,7.44,30.33,10.93,45.59
					c1.89,8.22,2.87,16.69,2.2,25.08c-1.34,16.88-8.9,32.89-3.35,49.92c7.41,22.7,34.54,34.18,56.05,24.53
					C731.97,178.07,744.12,162.03,750,144.9z"/>
				<linearGradient id="SVGID_9_" gradientUnits="userSpaceOnUse" x1="722.0396" y1="-3.0539" x2="769.6479" y2="79.4062">
					<stop  offset="0" style="stop-color:#FE9C0A"/>
					<stop  offset="1" style="stop-color:#FB5507"/>
				</linearGradient>
				<path fill="url(#SVGID_9_)" d="M750,0v90.75c-5.36-19.44-14.76-37.89-21.05-57.75c-3.63-11.46-4.51-23.38-12.2-33H750z"/>
				<linearGradient id="SVGID_10_" gradientUnits="userSpaceOnUse" x1="666.1821" y1="39.4075" x2="729.2165" y2="148.5864">
					<stop  offset="0" style="stop-color:#FB5507"/>
					<stop  offset="1" style="stop-color:#5C25BD"/>
				</linearGradient>
				<path fill="url(#SVGID_10_)" d="M726.01,100.22c3.38,12.05,5.81,24.91,2.62,37.02c-3.2,12.11-13.43,23.15-25.94,23.58
					c-10.7,0.37-21.04-7.84-23.11-18.34c-1.06-5.37-0.15-10.92,0.42-16.37c1.21-11.65,0.84-23.47-1.1-35.03
					c-2.87-17.08-14.26-53.95,8.38-63.67c24.87-10.67,29.3,20.57,30.23,36.29C718.24,76.21,722.62,88.16,726.01,100.22z
					 M711.38,108.82c1.14-4.33,0.28-8.92-0.93-13.22c-1.21-4.31-2.78-8.57-3.04-13.04c-0.33-5.61-1.91-16.77-10.79-12.96
					c-8.09,3.47-4.02,16.64-2.99,22.74c0.69,4.12,0.82,8.34,0.39,12.5c-0.2,1.95-0.53,3.93-0.15,5.85c0.74,3.75,4.43,6.68,8.25,6.55
					C706.59,117.08,710.24,113.14,711.38,108.82z"/>
				<linearGradient id="SVGID_11_" gradientUnits="userSpaceOnUse" x1="606.5119" y1="380.1656" x2="678.2488" y2="504.4174">
					<stop  offset="0" style="stop-color:#FB5507"/>
					<stop  offset="1" style="stop-color:#5C25BD"/>
				</linearGradient>
				<path fill="url(#SVGID_11_)" d="M680.4,458.84c6.61,8.26,8.34,19.48,7.69,30.04c-0.23,3.69-0.9,7.57-2.19,11.12h-42.83
					c-1.36-2.11-2.57-4.33-3.75-6.51c-2.57-4.76-5.15-9.58-6.57-14.8c-3.1-11.44-0.33-23.65-1.74-35.43
					c-1.42-11.96-7.1-23-13.48-33.22c-0.04-0.08-0.09-0.15-0.14-0.23c-3.55-5.66-7.43-11.39-8.56-17.97
					c-1.29-7.44,2.52-17.36,10.84-18.2c8.14-0.81,17.04,3.98,21.69,10.48c5.64,7.88,6.25,18.14,7.65,27.73
					c1.54,10.58,4.48,21.44,11.62,29.4C666.53,447.83,674.87,451.95,680.4,458.84z"/>
				<linearGradient id="SVGID_12_" gradientUnits="userSpaceOnUse" x1="405.1331" y1="49.0961" x2="632.1419" y2="442.287">
					<stop  offset="0" style="stop-color:#3887FE"/>
					<stop  offset="0.1723" style="stop-color:#3A81FA"/>
					<stop  offset="0.3971" style="stop-color:#4071EF"/>
					<stop  offset="0.6508" style="stop-color:#4A56DD"/>
					<stop  offset="0.9239" style="stop-color:#5831C5"/>
					<stop  offset="1" style="stop-color:#5C25BD"/>
				</linearGradient>
				<path fill="url(#SVGID_12_)" d="M523.15,280.15c-3.22,2.99-6.49,5.94-9.52,9.11c-16.9,17.69-14.25,39.83-4.53,60.4
					c8.52,18.06,18.86,35.07,22.86,54.89c6.31,31.23,5.23,63.73,0.22,95.45H512.8c-1.09-23.61-7.91-46.97-19.84-67.38
					c-9.53-16.31-22.44-31.29-26.55-49.73c-5.57-25.05,6.28-50.39,18.45-72.98c12.17-22.59,25.43-46.7,22.85-72.23
					c-2.59-25.57-17.85-48.57-26.04-72.49c-4.25-12.45-8.52-24.94-11.37-37.78C460.75,84.45,468.49,38.2,490.17,0h39.28
					c-6.25,17.09-12.5,34.18-18.76,51.28c-8.7,23.77-12.88,49.35-6.21,74.18c6.58,24.51,23.82,45,33.48,68.33
					c10.15,24.5,13.05,54.04-4.65,75.89C530.24,273.46,526.73,276.83,523.15,280.15z"/>
				<linearGradient id="SVGID_13_" gradientUnits="userSpaceOnUse" x1="315.3396" y1="43.6017" x2="558.861" y2="465.3931">
					<stop  offset="0" style="stop-color:#FE9C0A"/>
					<stop  offset="1" style="stop-color:#FB5507"/>
				</linearGradient>
				<path fill="url(#SVGID_13_)" d="M358.57,126.56c8.8-29.18,24.5-55.96,28.26-86.91c1.61-13.21,2.12-26.57,4.03-39.65h35.06
					c2.87,26.85-0.45,54.42-7.5,80.61c-6.42,23.86-15.97,47.95-12.71,72.43c3.53,26.49,21.47,48.65,30.25,73.89
					c6.01,17.25,7.65,36,4.73,54.03c-2.47,15.2-8.11,29.88-9.15,45.25c-1.85,27.1,10.5,52.2,25.7,75.38
					c0.59,1.58,1.2,3.13,1.84,4.65c10.25,24.26,24.53,41.59,33.66,67.76c2.75,7.87,4.8,16.7,6.18,26H460.4
					c-3.4-15.92-8.95-31.21-18.38-44.64c-17.9-25.47-58.28-41.63-64.6-74.2c-1.82-9.36-0.21-18.74,2.94-27.66
					c2.28-6.46,5.37-12.69,8.56-18.51c10.79-19.67,24.01-39.72,25.11-62.84c1.17-24.53-10-48.67-28.18-64.42
					c-20.34-17.63-36.72-39.55-30.7-67.99C356.09,135.28,357.25,130.89,358.57,126.56z"/>
				<linearGradient id="SVGID_14_" gradientUnits="userSpaceOnUse" x1="361.9682" y1="36.9226" x2="543.6918" y2="351.677">
					<stop  offset="0" style="stop-color:#FB5507"/>
					<stop  offset="1" style="stop-color:#5C25BD"/>
				</linearGradient>
				<path fill="url(#SVGID_14_)" d="M463.9,131.79c9.68,34.73,24.24,76.72,19.12,119.16c-3.52,29.11-17.11,45.83-26.23,67.8
					c-10.49,25.28-8.75,57.86,0.45,82.84c-15.2-23.18-27.55-48.28-25.7-75.38c1.04-15.37,6.68-30.05,9.15-45.25
					c2.92-18.03,1.28-36.78-4.73-54.03c-8.78-25.24-26.72-47.4-30.25-73.89c-3.26-24.48,6.29-48.57,12.71-72.43
					c7.05-26.19,10.37-53.76,7.5-80.61h23.69h6.84C450.55,43.42,452.13,89.63,463.9,131.79z"/>
				<linearGradient id="SVGID_15_" gradientUnits="userSpaceOnUse" x1="276.3939" y1="279.4062" x2="413.4903" y2="516.8642">
					<stop  offset="0" style="stop-color:#3887FE"/>
					<stop  offset="0.1723" style="stop-color:#3A81FA"/>
					<stop  offset="0.3971" style="stop-color:#4071EF"/>
					<stop  offset="0.6508" style="stop-color:#4A56DD"/>
					<stop  offset="0.9239" style="stop-color:#5831C5"/>
					<stop  offset="1" style="stop-color:#5C25BD"/>
				</linearGradient>
				<path fill="url(#SVGID_15_)" d="M442.7,500h-51.58c-3.82-3.6-7.31-7.53-10.43-11.75c-14.08-19.06-16.31-43.78-22.61-66.07
					c-4.02-14.2-12.5-29.63-28.75-31.32c-14.24-1.49-24.34,5.38-32.66,15.43c6.23-9.3,13.46-19.65,14.34-29.55
					c0.87-9.73-3.9-19.36-10.92-26.14c-8.71-8.42-20.33-13-31.78-16.33c-13.54-3.94-27.48-6.52-41.54-7.71
					c6.95-0.15,13.89-0.46,20.8-1.14c29.58-2.94,57.17-14.52,72.77-40.95c6.88-11.65,11.34-24.77,13.69-38.34
					c-0.32,25.24-5.91,50.64-9.99,75.76c-1.45,8.93-2.7,18.15-0.54,26.94c6.39,26.09,38.56,37.1,51.14,60.84
					c6.9,13.01,7.24,28.75,14.24,41.71c9.21,17.04,27.93,26.16,42.92,38.42C435.66,492.95,439.3,496.37,442.7,500z"/>
				<linearGradient id="SVGID_16_" gradientUnits="userSpaceOnUse" x1="317.6073" y1="150.2098" x2="421.3227" y2="329.8502">
					<stop  offset="0" style="stop-color:#3887FE"/>
					<stop  offset="0.1723" style="stop-color:#3A81FA"/>
					<stop  offset="0.3971" style="stop-color:#4071EF"/>
					<stop  offset="0.6508" style="stop-color:#4A56DD"/>
					<stop  offset="0.9239" style="stop-color:#5831C5"/>
					<stop  offset="1" style="stop-color:#5C25BD"/>
				</linearGradient>
				<path fill="url(#SVGID_16_)" d="M385.85,207.73c18.18,15.75,29.35,39.89,28.18,64.42c-1.1,23.12-14.32,43.17-25.11,62.84
					c-3.19,5.82-6.28,12.05-8.56,18.51c-1.62-29.96,11.67-59,2.55-88.72c-8.93-29.09-29.48-53.89-33.38-84.64
					c-2.31-18.23,0.9-37.12,9.04-53.58c-1.32,4.33-2.48,8.72-3.42,13.18C349.13,168.18,365.51,190.1,385.85,207.73z"/>
				<linearGradient id="SVGID_17_" gradientUnits="userSpaceOnUse" x1="210.3443" y1="418.1448" x2="290.9826" y2="557.8144">
					<stop  offset="0" style="stop-color:#FB5507"/>
					<stop  offset="1" style="stop-color:#5C25BD"/>
				</linearGradient>
				<path fill="url(#SVGID_17_)" d="M296.67,406.29c8.32-10.05,18.42-16.92,32.66-15.43c16.25,1.69,24.73,17.12,28.75,31.32
					c6.3,22.29,8.53,47.01,22.61,66.07c3.12,4.22,6.61,8.15,10.43,11.75h-35.33c-5.06-7.41-8.1-16.21-10.24-25.01
					c-1.56-6.47-3.38-13.95-9.38-16.82c-5.49-2.63-12.08-0.07-17,3.51c-10.33,7.49-17.13,19.19-27.83,26.16
					c-4.35,2.84-9.23,4.8-14.22,6.28c-10.11,2.99-20.43,4-30.88,4c-25.14,0-50.98-5.83-76.27-3.94c-5.72,0.42-11.94,1.53-15.69,5.82
					H109.7c-1.24-13.45,1.78-26.09,15-32.28c20.29-9.5,46.16-1.8,67.21,0.76c23.25,2.82,50.86,4.48,69.86-11.86
					C275.07,445.17,283.73,421.9,296.67,406.29z"/>
				<linearGradient id="SVGID_18_" gradientUnits="userSpaceOnUse" x1="126.0977" y1="106.0837" x2="256.8337" y2="332.5251">
					<stop  offset="0" style="stop-color:#FB5507"/>
					<stop  offset="1" style="stop-color:#5C25BD"/>
				</linearGradient>
				<path fill="url(#SVGID_18_)" d="M226.77,326.56c-15.79,0.33-31.62-0.11-47.34,1.36c-32.57,3.05-49.95,36.39-80.59,44.18
					c-23.33,5.93-47.63-4.63-70.77,2.98C15.77,379.12,6.55,387.2,0,397.47v-26.6c10.6-1.67,21.11-3.87,31.47-6.67
					c15.22-4.11,31.98-9.25,46.41-17.45c0,0,0.01,0,0.01-0.01c20.71-10.09,41.43-20.93,57.29-37.54
					c10.22-10.71,18.25-23.64,30.05-32.58c31.15-23.59,78.09-12.52,111.15-33.35c23.93-15.08,35.78-45.18,33.73-73.4
					c-0.74-10.23-3.08-20.3-3.83-30.54c-1.16-16.01,1.14-34.46,5.06-52.09c7.28-15.1,12.64-30.82,11.21-48.09
					C321.4,25.41,315.43,12.6,309.84,0h49.34c0.28,11-0.52,22.04-2.4,32.91c-5.93,34.32-31,62.67-32.94,98.01
					c-1.28,23.42,6.81,45.81,10.42,68.66c2.38,15.06,2.45,31.09-0.23,46.55c-2.35,13.57-6.81,26.69-13.69,38.34
					c-15.6,26.43-43.19,38.01-72.77,40.95C240.66,326.1,233.72,326.41,226.77,326.56z"/>
				<linearGradient id="SVGID_19_" gradientUnits="userSpaceOnUse" x1="100.8993" y1="91.8684" x2="205.5122" y2="273.0632">
					<stop  offset="0" style="stop-color:#FE9C0A"/>
					<stop  offset="1" style="stop-color:#FB5507"/>
				</linearGradient>
				<path fill="url(#SVGID_19_)" d="M311.34,87.24c-5.73,11.9-12.65,23.42-18.38,35.03c-6.65,13.45-11.97,27.41-12.03,42.56
					c-0.06,15.87,2.07,32.35-4.61,47.28c-5.63,12.57-17.48,19.87-29.96,24.62c-25.5,9.71-53.2,11.63-79.76,17.9
					c-9.52,2.25-19.02,5.11-27.41,10.14c-17.76,10.64-22.52,31.3-30.02,49.09c-6.25,14.79-17.74,25.19-31.28,32.88
					c0,0.01-0.01,0.01-0.01,0.01c-14.43,8.2-31.19,13.34-46.41,17.45c-10.36,2.8-20.87,5-31.47,6.67v-40.68
					c4.87,0.66,9.76,1.09,14.69,1.24c24.87,0.73,51.19-6.92,67.44-25.75c11.75-13.61,16.91-31.25,20.77-48.45
					c3.12-13.91,4.43-29.08,12.58-41.22c8.89-13.23,24.13-14.93,38.62-17.85c25-5.02,50.27-10.37,71.29-25.67
					c25.68-18.68,36.81-48.87,41.38-79.16c3.75-24.82,5.6-52.92-0.61-77.45c-1.42-5.59-3.52-10.86-6.14-15.88h49.82
					c5.59,12.6,11.56,25.41,12.71,39.15C323.98,56.42,318.62,72.14,311.34,87.24z"/>
				<linearGradient id="SVGID_20_" gradientUnits="userSpaceOnUse" x1="114.8293" y1="385.0375" x2="166.1416" y2="473.913">
					<stop  offset="0" style="stop-color:#FE9C0A"/>
					<stop  offset="1" style="stop-color:#FB5507"/>
				</linearGradient>
				<path fill="url(#SVGID_20_)" d="M283.8,364.04c4.48,6.35,5.92,15.33,1.82,21.94c-3.32,5.36-9.42,8.18-14.52,11.88
					c-11.25,8.17-18.06,21.1-28.4,30.39c-11.37,10.21-26.53,15.48-41.72,17.08c-15.2,1.59-30.54-0.26-45.6-2.84
					c-15.74-2.71-31.52-6.23-47.48-5.66c-15.96,0.58-32.54,5.85-42.97,17.94C54.4,466.98,51.9,483.54,51.35,500H0v-45.16
					c3.21-3.32,6.71-6.35,10.43-9.02c19.74-14.16,44.48-19.58,68.7-21.45c9.74-0.74,19.79-1.04,28.69-5.08
					c11.07-5.02,18.83-15.13,26.49-24.58c11.58-14.26,24.21-28.05,39.85-37.69c26.92-16.58,62-19.11,91.02-6.55
					C272.32,353.56,279.31,357.69,283.8,364.04z M242.99,402.48c8.56-4.21,19.44-10.68,17.62-21.77
					c-5.26-31.96-56.23-22.12-75.43-11.57c-0.1,0.05-0.21,0.11-0.31,0.17c-5.96,3.34-10.48,8.9-13.35,15.04
					c-3.06,6.56-2.71,14.56-6.84,20.61c-2.97,4.36-9.07,7.63-9.76,13.29c-0.8,6.45,5.32,11.94,10.75,14.05
					c6.1,2.37,13.08,3.14,19.59,3.42c19.51,0.82,28.83-8.5,41.44-22.55C231.12,408.24,237.15,405.35,242.99,402.48z"/>
				<linearGradient id="SVGID_21_" gradientUnits="userSpaceOnUse" x1="85.5214" y1="87.0925" x2="161.7526" y2="219.1287">
					<stop  offset="0" style="stop-color:#3887FE"/>
					<stop  offset="0.1723" style="stop-color:#3A81FA"/>
					<stop  offset="0.3971" style="stop-color:#4071EF"/>
					<stop  offset="0.6508" style="stop-color:#4A56DD"/>
					<stop  offset="0.9239" style="stop-color:#5831C5"/>
					<stop  offset="1" style="stop-color:#5C25BD"/>
				</linearGradient>
				<path fill="url(#SVGID_21_)" d="M246.39,0c26.76,55.81,4,125.87-43.88,162.44c-21.69,16.56-46.32,24.07-71.68,33.09
					c-25.49,9.05-51.97,23.51-63.38,49.21c-4.36,9.81-7.61,20.21-13.54,29.17C47,284.37,36.68,292.34,25.24,297.5
					c-8.01,3.61-16.54,5.89-25.24,7.19v-30.52c5.4-1.94,10.41-4.8,14.6-8.72c11.26-10.52,15.16-26.91,25.51-38.32
					c21.35-23.56,62.53-18.97,84.08-42.35c8.57-9.29,12.69-21.72,18.8-32.79c6.88-12.5,16.5-23.48,27.97-31.95
					c16.69-12.34,37.34-19.55,51.3-34.9c11.28-12.42,17.04-29.19,18.18-45.93c0.9-13.17-0.9-26.36-4.07-39.21H246.39z"/>
				<linearGradient id="SVGID_22_" gradientUnits="userSpaceOnUse" x1="199.5896" y1="380.3839" x2="214.5418" y2="406.282">
					<stop  offset="0" style="stop-color:#FB5507"/>
					<stop  offset="1" style="stop-color:#5C25BD"/>
				</linearGradient>
				<path fill="url(#SVGID_22_)" d="M236.52,381.84c1.17,5.01-3.29,9.4-7.36,12.55c-6.61,5.11-13.37,10.02-20.27,14.74
					c-4.98,3.4-10.16,6.75-16.01,8.18c-8.48,2.07-13.3-2.94-8.54-10.14c4.87-7.39,8.54-15.68,13.83-22.78
					c4.14-5.56,9.99-10.33,16.87-11.14c3.19-0.38,6.42,0.11,9.58,0.7C229.58,374.89,235.38,376.92,236.52,381.84z"/>
				<linearGradient id="SVGID_23_" gradientUnits="userSpaceOnUse" x1="95.2955" y1="59.7526" x2="135.3443" y2="129.1191">
					<stop  offset="0" style="stop-color:#FB5507"/>
					<stop  offset="1" style="stop-color:#5C25BD"/>
				</linearGradient>
				<path fill="url(#SVGID_23_)" d="M226.58,0c8.25,27.28-4.56,59.21-32.56,70.86c-9.75,4.06-20.38,5.35-30.71,7.6
					c-11.88,2.59-22.76,7.04-31.39,15.84c-16.03,16.35-18.77,42-36.57,56.79c-17.79,14.79-41.19,18.25-63.22,22.27
					c-10.74,1.96-21.72,4.65-32.13,8.48v-11.37v-2.31c5.72-2.47,11.72-4.31,17.85-5.42c13.18-2.38,27.53-1.78,38.82-8.99
					c7.39-4.73,12.49-12.28,16.66-20.01c4.39-8.14,8.02-16.78,13.63-24.14c24.57-32.19,77.81-29.92,102.53-62.01
					C199.72,34.31,203,16.16,198.79,0H226.58z"/>
			</g>
		</g>
	</g>
</g>
</svg>
