<?xml version="1.0" encoding="utf-8"?>
<!-- Generator: Adobe Illustrator 25.0.1, SVG Export Plug-In . SVG Version: 6.00 Build 0)  -->
<svg version="1.2" baseProfile="tiny" xmlns="http://www.w3.org/2000/svg" xmlns:xlink="http://www.w3.org/1999/xlink" x="0px"
	 y="0px" viewBox="0 0 369 369" overflow="visible" xml:space="preserve">
<g id="Слой_1">
</g>
<g id="Слой_2">
	<rect fill="#151022" stroke="#000000" stroke-miterlimit="10" width="369" height="369"/>
	<circle fill="#EC6743" cx="69.22" cy="65.24" r="8.19"/>
	<circle fill="#EC6743" cx="171.26" cy="18.69" r="8.19"/>
	<circle fill="#EC6743" cx="260.54" cy="114.02" r="8.19"/>
	<circle fill="#EC6743" cx="158.82" cy="201.07" r="8.19"/>
	<circle fill="#EC6743" cx="335.15" cy="237.74" r="8.19"/>
	<circle fill="#EC6743" cx="265.64" cy="317.13" r="8.19"/>
	<circle fill="#EC6743" cx="56.79" cy="302.14" r="8.19"/>
	<circle fill="#6C4092" cx="81.65" cy="158.57" r="5.55"/>
	<circle fill="#6C4092" cx="21.51" cy="58.33" r="5.55"/>
	<circle fill="#6C4092" cx="153.45" cy="55.62" r="5.55"/>
	<circle fill="#6C4092" cx="291.89" cy="65.24" r="5.55"/>
	<circle fill="#6C4092" cx="353.93" cy="145.97" r="5.55"/>
	<circle fill="#6C4092" cx="205.19" cy="184.5" r="5.55"/>
	<circle fill="#6C4092" cx="259.11" cy="258.73" r="5.55"/>
	<circle fill="#6C4092" cx="353.93" cy="352.35" r="5.55"/>
	<circle fill="#6C4092" cx="180.54" cy="302.14" r="5.55"/>
	<circle fill="#6C4092" cx="22.86" cy="250.13" r="5.55"/>
</g>
<g id="Слой_3">
	<g>
		<line fill="none" stroke="#E94286" stroke-width="7" stroke-miterlimit="10" x1="125.26" y1="97.66" x2="140.71" y2="85.84"/>
		<line fill="none" stroke="#E94286" stroke-width="7" stroke-miterlimit="10" x1="135.76" y1="85.44" x2="148.27" y2="100.32"/>
		<line fill="none" stroke="#E94286" stroke-width="7" stroke-miterlimit="10" x1="143.61" y1="99.47" x2="159.07" y2="87.65"/>
		<line fill="none" stroke="#E94286" stroke-width="7" stroke-miterlimit="10" x1="154.12" y1="87.26" x2="166.63" y2="102.13"/>
		<line fill="none" stroke="#E94286" stroke-width="7" stroke-miterlimit="10" x1="161.83" y1="101.87" x2="177.29" y2="90.05"/>
		<line fill="none" stroke="#E94286" stroke-width="7" stroke-miterlimit="10" x1="172.34" y1="89.65" x2="184.85" y2="104.53"/>
		<line fill="none" stroke="#E94286" stroke-width="7" stroke-miterlimit="10" x1="180" y1="104.18" x2="195.45" y2="92.36"/>
		<line fill="none" stroke="#E94286" stroke-width="7" stroke-miterlimit="10" x1="190.51" y1="91.96" x2="203.02" y2="106.84"/>
		<line fill="none" stroke="#E94286" stroke-width="7" stroke-miterlimit="10" x1="198.17" y1="106.58" x2="213.62" y2="94.76"/>
		<line fill="none" stroke="#E94286" stroke-width="7" stroke-miterlimit="10" x1="208.67" y1="94.36" x2="221.18" y2="109.24"/>
	</g>
	<g>
		<line fill="none" stroke="#E94286" stroke-width="7" stroke-miterlimit="10" x1="56.9" y1="222.67" x2="62" y2="203.89"/>
		<line fill="none" stroke="#E94286" stroke-width="7" stroke-miterlimit="10" x1="57.83" y1="206.58" x2="76.8" y2="210.8"/>
		<line fill="none" stroke="#E94286" stroke-width="7" stroke-miterlimit="10" x1="72.59" y1="212.96" x2="77.68" y2="194.18"/>
		<line fill="none" stroke="#E94286" stroke-width="7" stroke-miterlimit="10" x1="73.51" y1="196.87" x2="92.49" y2="201.09"/>
		<line fill="none" stroke="#E94286" stroke-width="7" stroke-miterlimit="10" x1="88.51" y1="203.79" x2="93.61" y2="185.01"/>
		<line fill="none" stroke="#E94286" stroke-width="7" stroke-miterlimit="10" x1="89.44" y1="187.7" x2="108.41" y2="191.92"/>
		<line fill="none" stroke="#E94286" stroke-width="7" stroke-miterlimit="10" x1="104.35" y1="194.59" x2="109.44" y2="175.81"/>
		<line fill="none" stroke="#E94286" stroke-width="7" stroke-miterlimit="10" x1="105.27" y1="178.5" x2="124.24" y2="182.72"/>
		<line fill="none" stroke="#E94286" stroke-width="7" stroke-miterlimit="10" x1="120.23" y1="185.46" x2="125.33" y2="166.68"/>
		<line fill="none" stroke="#E94286" stroke-width="7" stroke-miterlimit="10" x1="121.16" y1="169.37" x2="140.13" y2="173.58"/>
	</g>
	<g>
		<line fill="none" stroke="#E94286" stroke-width="7" stroke-miterlimit="10" x1="246.46" y1="197.18" x2="256.23" y2="180.35"/>
		<line fill="none" stroke="#E94286" stroke-width="7" stroke-miterlimit="10" x1="251.5" y1="181.87" x2="268.75" y2="190.85"/>
		<line fill="none" stroke="#E94286" stroke-width="7" stroke-miterlimit="10" x1="264.12" y1="191.85" x2="273.89" y2="175.02"/>
		<line fill="none" stroke="#E94286" stroke-width="7" stroke-miterlimit="10" x1="269.17" y1="176.54" x2="286.41" y2="185.52"/>
		<line fill="none" stroke="#E94286" stroke-width="7" stroke-miterlimit="10" x1="281.87" y1="187.11" x2="291.64" y2="170.28"/>
		<line fill="none" stroke="#E94286" stroke-width="7" stroke-miterlimit="10" x1="286.92" y1="171.8" x2="304.16" y2="180.78"/>
		<line fill="none" stroke="#E94286" stroke-width="7" stroke-miterlimit="10" x1="299.54" y1="182.31" x2="309.31" y2="165.48"/>
		<line fill="none" stroke="#E94286" stroke-width="7" stroke-miterlimit="10" x1="304.59" y1="167" x2="321.83" y2="175.98"/>
		<line fill="none" stroke="#E94286" stroke-width="7" stroke-miterlimit="10" x1="317.25" y1="177.59" x2="327.02" y2="160.76"/>
		<line fill="none" stroke="#E94286" stroke-width="7" stroke-miterlimit="10" x1="322.3" y1="162.28" x2="339.54" y2="171.26"/>
	</g>
	<g>
		<line fill="none" stroke="#E94286" stroke-width="7" stroke-miterlimit="10" x1="151" y1="260.9" x2="168.55" y2="252.49"/>
		<line fill="none" stroke="#E94286" stroke-width="7" stroke-miterlimit="10" x1="163.79" y1="251.09" x2="172.99" y2="268.22"/>
		<line fill="none" stroke="#E94286" stroke-width="7" stroke-miterlimit="10" x1="168.6" y1="266.44" x2="186.15" y2="258.03"/>
		<line fill="none" stroke="#E94286" stroke-width="7" stroke-miterlimit="10" x1="181.39" y1="256.63" x2="190.58" y2="273.76"/>
		<line fill="none" stroke="#E94286" stroke-width="7" stroke-miterlimit="10" x1="185.94" y1="272.51" x2="203.49" y2="264.11"/>
		<line fill="none" stroke="#E94286" stroke-width="7" stroke-miterlimit="10" x1="198.73" y1="262.71" x2="207.92" y2="279.84"/>
		<line fill="none" stroke="#E94286" stroke-width="7" stroke-miterlimit="10" x1="203.25" y1="278.5" x2="220.8" y2="270.09"/>
		<line fill="none" stroke="#E94286" stroke-width="7" stroke-miterlimit="10" x1="216.04" y1="268.69" x2="225.23" y2="285.82"/>
		<line fill="none" stroke="#E94286" stroke-width="7" stroke-miterlimit="10" x1="220.54" y1="284.57" x2="238.09" y2="276.17"/>
		<line fill="none" stroke="#E94286" stroke-width="7" stroke-miterlimit="10" x1="233.33" y1="274.76" x2="242.52" y2="291.89"/>
	</g>
	<g>
		<line fill="none" stroke="#E94286" stroke-width="7" stroke-miterlimit="10" x1="307.55" y1="312.17" x2="321.99" y2="299.13"/>
		<line fill="none" stroke="#E94286" stroke-width="7" stroke-miterlimit="10" x1="317.02" y1="299.14" x2="330.71" y2="312.95"/>
		<line fill="none" stroke="#E94286" stroke-width="7" stroke-miterlimit="10" x1="325.99" y1="312.49" x2="340.43" y2="299.44"/>
		<line fill="none" stroke="#E94286" stroke-width="7" stroke-miterlimit="10" x1="335.47" y1="299.45" x2="349.15" y2="313.26"/>
		<line fill="none" stroke="#E94286" stroke-width="7" stroke-miterlimit="10" x1="344.35" y1="313.39" x2="358.79" y2="300.35"/>
		<line fill="none" stroke="#E94286" stroke-width="7" stroke-miterlimit="10" x1="353.82" y1="300.36" x2="367.5" y2="314.16"/>
		<line fill="none" stroke="#E94286" stroke-width="7" stroke-miterlimit="10" x1="362.64" y1="314.21" x2="377.08" y2="301.17"/>
	</g>
	<g>
		<line fill="none" stroke="#E94286" stroke-width="7" stroke-miterlimit="10" x1="-14.99" y1="300.36" x2="-1.31" y2="314.16"/>
		<line fill="none" stroke="#E94286" stroke-width="7" stroke-miterlimit="10" x1="-6.17" y1="314.21" x2="8.27" y2="301.17"/>
		<line fill="none" stroke="#E94286" stroke-width="7" stroke-miterlimit="10" x1="3.31" y1="301.18" x2="16.99" y2="314.99"/>
		<line fill="none" stroke="#E94286" stroke-width="7" stroke-miterlimit="10" x1="12.13" y1="315.12" x2="26.57" y2="302.08"/>
		<line fill="none" stroke="#E94286" stroke-width="7" stroke-miterlimit="10" x1="21.61" y1="302.09" x2="35.29" y2="315.89"/>
	</g>
	<g>
		<line fill="none" stroke="#E94286" stroke-width="7" stroke-miterlimit="10" x1="-8.78" y1="110.81" x2="9.85" y2="103.59"/>
		<line fill="none" stroke="#E94286" stroke-width="7" stroke-miterlimit="10" x1="5.2" y1="101.54" x2="12.59" y2="121.22"/>
		<line fill="none" stroke="#E94286" stroke-width="7" stroke-miterlimit="10" x1="8.02" y1="119.24" x2="26.65" y2="112.03"/>
		<line fill="none" stroke="#E94286" stroke-width="7" stroke-miterlimit="10" x1="22.01" y1="109.98" x2="29.4" y2="129.66"/>
		<line fill="none" stroke="#E94286" stroke-width="7" stroke-miterlimit="10" x1="24.8" y1="127.77" x2="43.43" y2="120.56"/>
		<line fill="none" stroke="#E94286" stroke-width="7" stroke-miterlimit="10" x1="38.78" y1="118.51" x2="46.17" y2="138.19"/>
	</g>
	<g>
		<line fill="none" stroke="#E94286" stroke-width="7" stroke-miterlimit="10" x1="326.95" y1="94.27" x2="345.59" y2="87.06"/>
		<line fill="none" stroke="#E94286" stroke-width="7" stroke-miterlimit="10" x1="340.94" y1="85.01" x2="348.33" y2="104.69"/>
		<line fill="none" stroke="#E94286" stroke-width="7" stroke-miterlimit="10" x1="344.1" y1="102.26" x2="362.73" y2="95.05"/>
		<line fill="none" stroke="#E94286" stroke-width="7" stroke-miterlimit="10" x1="358.08" y1="93" x2="365.47" y2="112.67"/>
		<line fill="none" stroke="#E94286" stroke-width="7" stroke-miterlimit="10" x1="360.92" y1="110.81" x2="379.56" y2="103.59"/>
	</g>
	<g>
		<line fill="none" stroke="#E94286" stroke-width="7" stroke-miterlimit="10" x1="253.15" y1="-10.87" x2="256.6" y2="9.86"/>
		<line fill="none" stroke="#E94286" stroke-width="7" stroke-miterlimit="10" x1="252.49" y1="7.04" x2="272.17" y2="3.57"/>
		<line fill="none" stroke="#E94286" stroke-width="7" stroke-miterlimit="10" x1="268" y1="0.66" x2="271.45" y2="21.39"/>
		<line fill="none" stroke="#E94286" stroke-width="7" stroke-miterlimit="10" x1="267.3" y1="18.66" x2="286.98" y2="15.18"/>
		<line fill="none" stroke="#E94286" stroke-width="7" stroke-miterlimit="10" x1="282.81" y1="12.27" x2="286.26" y2="33"/>
	</g>
	<g>
		<line fill="none" stroke="#E94286" stroke-width="7" stroke-miterlimit="10" x1="61.3" y1="23.87" x2="61.23" y2="3.89"/>
		<line fill="none" stroke="#E94286" stroke-width="7" stroke-miterlimit="10" x1="57.65" y1="7.5" x2="78.67" y2="7.64"/>
		<line fill="none" stroke="#E94286" stroke-width="7" stroke-miterlimit="10" x1="74.89" y1="10.72" x2="74.82" y2="-9.26"/>
	</g>
	<g>
		<line fill="none" stroke="#E94286" stroke-width="7" stroke-miterlimit="10" x1="74.89" y1="379.57" x2="74.82" y2="359.59"/>
		<line fill="none" stroke="#E94286" stroke-width="7" stroke-miterlimit="10" x1="71.24" y1="363.2" x2="92.26" y2="363.34"/>
		<line fill="none" stroke="#E94286" stroke-width="7" stroke-miterlimit="10" x1="88.89" y1="366.92" x2="88.82" y2="346.94"/>
		<line fill="none" stroke="#E94286" stroke-width="7" stroke-miterlimit="10" x1="85.24" y1="350.54" x2="106.26" y2="350.68"/>
		<line fill="none" stroke="#E94286" stroke-width="7" stroke-miterlimit="10" x1="102.78" y1="354.24" x2="102.71" y2="334.26"/>
		<line fill="none" stroke="#E94286" stroke-width="7" stroke-miterlimit="10" x1="99.13" y1="337.87" x2="120.15" y2="338"/>
		<line fill="none" stroke="#E94286" stroke-width="7" stroke-miterlimit="10" x1="116.75" y1="341.62" x2="116.67" y2="321.64"/>
		<line fill="none" stroke="#E94286" stroke-width="7" stroke-miterlimit="10" x1="113.09" y1="325.25" x2="134.11" y2="325.39"/>
	</g>
	<g>
		<line fill="none" stroke="#E94286" stroke-width="7" stroke-miterlimit="10" x1="207.5" y1="342.06" x2="227.18" y2="338.58"/>
		<line fill="none" stroke="#E94286" stroke-width="7" stroke-miterlimit="10" x1="223.01" y1="335.67" x2="226.46" y2="356.41"/>
		<line fill="none" stroke="#E94286" stroke-width="7" stroke-miterlimit="10" x1="222.78" y1="353.21" x2="242.45" y2="349.73"/>
		<line fill="none" stroke="#E94286" stroke-width="7" stroke-miterlimit="10" x1="238.29" y1="346.82" x2="241.74" y2="367.55"/>
		<line fill="none" stroke="#E94286" stroke-width="7" stroke-miterlimit="10" x1="237.64" y1="364.84" x2="257.31" y2="361.37"/>
		<line fill="none" stroke="#E94286" stroke-width="7" stroke-miterlimit="10" x1="253.15" y1="358.46" x2="256.6" y2="379.19"/>
	</g>
</g>
<g id="Слой_4">
	<line fill="none" stroke="#6267AD" stroke-width="7" stroke-miterlimit="10" x1="214.93" y1="140.42" x2="240.01" y2="145.97"/>
	<line fill="none" stroke="#6267AD" stroke-width="7" stroke-miterlimit="10" x1="69.22" y1="109.5" x2="93.1" y2="119.82"/>
	<line fill="none" stroke="#6267AD" stroke-width="7" stroke-miterlimit="10" x1="19.35" y1="192.88" x2="42.48" y2="176.29"/>
	<line fill="none" stroke="#6267AD" stroke-width="7" stroke-miterlimit="10" x1="93.57" y1="227.3" x2="114.76" y2="242.97"/>
	<line fill="none" stroke="#6267AD" stroke-width="7" stroke-miterlimit="10" x1="282.62" y1="235.13" x2="297.44" y2="256.69"/>
	<line fill="none" stroke="#6267AD" stroke-width="7" stroke-miterlimit="10" x1="229.31" y1="36.83" x2="247.47" y2="55.62"/>
	<line fill="none" stroke="#6267AD" stroke-width="7" stroke-miterlimit="10" x1="330.92" y1="18.69" x2="339.14" y2="43.95"/>
	<line fill="none" stroke="#6267AD" stroke-width="7" stroke-miterlimit="10" x1="22.86" y1="5.31" x2="45.12" y2="-8.77"/>
	<line fill="none" stroke="#6267AD" stroke-width="7" stroke-miterlimit="10" x1="22.86" y1="373.42" x2="45.12" y2="359.34"/>
	<line fill="none" stroke="#6267AD" stroke-width="7" stroke-miterlimit="10" x1="171.26" y1="335.12" x2="147.89" y2="348.42"/>
</g>
<g id="Слой_5">
	<line fill="none" stroke="#6565AB" stroke-width="5" stroke-miterlimit="10" x1="297.44" y1="115.64" x2="314.77" y2="124.17"/>
	<line fill="none" stroke="#6565AB" stroke-width="5" stroke-miterlimit="10" x1="343.34" y1="196.64" x2="361.78" y2="198.98"/>
	<line fill="none" stroke="#6565AB" stroke-width="5" stroke-miterlimit="10" x1="212.02" y1="232.79" x2="229.31" y2="229.54"/>
	<line fill="none" stroke="#6565AB" stroke-width="5" stroke-miterlimit="10" x1="169.56" y1="135.89" x2="160.38" y2="153.02"/>
	<line fill="none" stroke="#6565AB" stroke-width="5" stroke-miterlimit="10" x1="98.93" y1="286.51" x2="116.71" y2="280.37"/>
	<line fill="none" stroke="#6565AB" stroke-width="5" stroke-miterlimit="10" x1="13.58" y1="220.74" x2="-2.48" y2="219.23"/>
	<line fill="none" stroke="#6565AB" stroke-width="5" stroke-miterlimit="10" x1="306.1" y1="346.04" x2="290.03" y2="356.93"/>
	<line fill="none" stroke="#6565AB" stroke-width="5" stroke-miterlimit="10" x1="185.99" y1="57.04" x2="205.89" y2="50.07"/>
	<line fill="none" stroke="#6565AB" stroke-width="5" stroke-miterlimit="10" x1="122.78" y1="35.47" x2="109.64" y2="22.64"/>
</g>
</svg>
