<?xml version="1.0" encoding="utf-8"?>
<!-- Generator: Adobe Illustrator 25.0.1, SVG Export Plug-In . SVG Version: 6.00 Build 0)  -->
<svg version="1.1" id="Слой_1" xmlns="http://www.w3.org/2000/svg" xmlns:xlink="http://www.w3.org/1999/xlink" x="0px" y="0px"
	 viewBox="0 0 50 50" style="enable-background:new 0 0 50 50;" xml:space="preserve">
<style type="text/css">
	.st0{fill:#6F3089;}
	.st1{fill:#5A318A;}
	.st2{fill:#8E2F89;}
	.st3{fill:#63318A;}
</style>
<g>
	<path class="st0" d="M25,31.5c-4.42,0-8.01-5.83-8.01-13s3.6-13,8.01-13s8.01,5.83,8.01,13S29.42,31.5,25,31.5z"/>
	<path class="st1" d="M25,6c4.14,0,7.51,5.61,7.51,12.5S29.14,31,25,31s-7.51-5.61-7.51-12.5S20.86,6,25,6 M25,5
		c-4.7,0-8.51,6.04-8.51,13.5S20.3,32,25,32s8.51-6.04,8.51-13.5S29.7,5,25,5L25,5z"/>
</g>
<g>
	<path class="st2" d="M25,27.13c-6.52,0-11.82-5.3-11.82-11.82S18.48,3.5,25,3.5c6.51,0,11.82,5.3,11.82,11.82S31.51,27.13,25,27.13
		z"/>
	<path class="st3" d="M25,4c6.24,0,11.32,5.08,11.32,11.32S31.24,26.63,25,26.63s-11.32-5.08-11.32-11.32S18.76,4,25,4 M25,3
		c-6.8,0-12.32,5.51-12.32,12.32S18.2,27.63,25,27.63s12.32-5.51,12.32-12.32S31.8,3,25,3L25,3z"/>
</g>
<g>
	<path class="st2" d="M11.5,49.5V39.47c0-3.35,2.19-6.08,4.88-6.08h17.23c2.69,0,4.88,2.73,4.88,6.08V49.5H11.5z"/>
	<g>
		<path class="st3" d="M33.62,33.89c2.42,0,4.38,2.5,4.38,5.58V49H12v-9.53c0-3.08,1.97-5.58,4.38-5.58H33.62 M33.62,32.89H16.38
			c-2.96,0-5.38,2.96-5.38,6.58V50h28V39.47C39,35.86,36.58,32.89,33.62,32.89L33.62,32.89z"/>
	</g>
</g>
</svg>
